<svg width="80" height="256" viewBox="0 0 80 256" fill="none" xmlns="http://www.w3.org/2000/svg">
<g clip-path="url(#clip0_3149_965)">
<path d="M40 23C49.37 23 57 30.63 57 40C57 49.37 49.37 57 40 57C30.63 57 23 49.37 23 40C23 30.63 30.63 23 40 23ZM40 0C17.91 0 0 17.91 0 40C0 62.09 17.91 80 40 80C62.09 80 80 62.09 80 40C80 17.91 62.09 0 40 0Z" fill="white"/>
<path d="M51.5 88V115.5C51.5 116.052 51.9477 116.5 52.5 116.5H80V139.5H52.5C51.9477 139.5 51.5 139.948 51.5 140.5V168H28.5V140.5C28.5 139.948 28.0523 139.5 27.5 139.5H0V116.5H27.5C28.0523 116.5 28.5 116.052 28.5 115.5V88H51.5Z" fill="white"/>
<path d="M40 199C49.37 199 57 206.63 57 216C57 225.37 49.37 233 40 233C30.63 233 23 225.37 23 216C23 206.63 30.63 199 40 199ZM40 176C17.91 176 0 193.91 0 216C0 238.09 17.91 256 40 256C62.09 256 80 238.09 80 216C80 193.91 62.09 176 40 176Z" fill="white"/>
</g>
<defs>
<clipPath id="clip0_3149_965">
<rect width="80" height="256" fill="white"/>
</clipPath>
</defs>
</svg>
